<svg width="206" height="153" viewBox="0 0 206 153" fill="none" xmlns="http://www.w3.org/2000/svg">
<circle cx="129.5" cy="76.5" r="76.5" fill="white"/>
<g clip-path="url(#clip0_171_766)">
<path d="M125.261 91.6665H81.739C78.4669 91.6665 75.8042 94.3136 75.8042 97.5665V117.233C75.8042 120.486 78.4669 123.133 81.739 123.133H125.261C128.533 123.133 131.196 120.486 131.196 117.233V97.5665C131.196 94.3136 128.533 91.6665 125.261 91.6665ZM81.739 95.5998H125.261C126.353 95.5998 127.239 96.4809 127.239 97.5665V105.433H111.132C110.248 102.049 107.177 99.5332 103.5 99.5332C99.8223 99.5332 96.752 102.049 95.8677 105.433H79.7607V97.5665C79.7607 96.4809 80.647 95.5998 81.739 95.5998ZM107.456 107.4C107.456 109.569 105.682 111.333 103.5 111.333C101.318 111.333 99.5433 109.569 99.5433 107.4C99.5433 105.231 101.318 103.467 103.5 103.467C105.682 103.467 107.456 105.231 107.456 107.4ZM125.261 119.2H81.739C80.647 119.2 79.7607 118.319 79.7607 117.233V109.367H95.8677C96.752 112.751 99.8223 115.267 103.5 115.267C107.177 115.267 110.248 112.751 111.132 109.367H127.239V117.233C127.239 118.319 126.353 119.2 125.261 119.2Z" fill="#457DB8"/>
<path d="M103.5 87.7334C117.68 87.7334 129.217 76.2638 129.217 62.1668C129.217 48.0697 117.68 36.6001 103.5 36.6001C89.3199 36.6001 77.7827 48.0697 77.7827 62.1668C77.7827 76.2638 89.3199 87.7334 103.5 87.7334ZM87.7255 77.0249C89.9035 76.1557 92.139 75.4713 94.412 74.9776C95.8581 78.3937 97.6088 81.2592 99.0827 83.3497C94.6533 82.4372 90.7265 80.1716 87.7255 77.0249ZM108.56 50.0383C105.199 50.4376 101.801 50.4376 98.4417 50.0383C100.115 46.3548 102.155 43.4048 103.502 41.6584C104.847 43.4048 106.887 46.3548 108.56 50.0383ZM103.5 54.2745C105.68 54.2745 107.858 54.1034 110.02 53.8006C110.669 55.8105 111.142 57.9601 111.324 60.2001H95.6741C95.8561 57.962 96.3309 55.8125 96.9778 53.8006C99.142 54.1054 101.32 54.2745 103.5 54.2745ZM98.4397 74.2952C101.799 73.896 105.199 73.896 108.559 74.2952C106.887 77.9788 104.847 80.9288 103.5 82.6752C102.153 80.9288 100.113 77.9788 98.4397 74.2952ZM96.9798 70.531C96.3309 68.5211 95.8581 66.3715 95.6761 64.1334H111.326C111.144 66.3715 110.669 68.5211 110.022 70.531C105.696 69.9233 101.304 69.9233 96.9798 70.531ZM115.283 64.1334H125.162C124.84 67.6715 123.651 70.9578 121.819 73.7996C119.267 72.7061 116.632 71.8526 113.951 71.239C114.626 69.0147 115.109 66.6311 115.283 64.1334ZM115.283 60.2001C115.109 57.7024 114.628 55.3188 113.949 53.0945C116.63 52.4809 119.265 51.6274 121.819 50.5339C123.653 53.3758 124.84 56.6621 125.162 60.2001H115.283ZM91.7176 60.2001H81.8381C82.1606 56.6621 83.3495 53.3758 85.1814 50.5339C87.7334 51.6274 90.3684 52.4809 93.0509 53.0945C92.3744 55.3188 91.8917 57.7024 91.7176 60.2001ZM91.7176 64.1334C91.8917 66.6311 92.3724 69.0147 93.0509 71.239C90.3704 71.8526 87.7353 72.7061 85.1834 73.7996C83.3495 70.9578 82.1626 67.6715 81.8401 64.1334H91.7176ZM107.918 83.3497C109.391 81.2592 111.142 78.3918 112.588 74.9776C114.861 75.4713 117.097 76.1557 119.275 77.0249C116.274 80.1716 112.347 82.4372 107.918 83.3497ZM119.275 47.3086C117.097 48.1779 114.861 48.8623 112.588 49.3559C111.142 45.9398 109.391 43.0744 107.918 40.9838C112.347 41.8963 116.274 44.1619 119.275 47.3086ZM99.0827 40.9838C97.6088 43.0744 95.8581 45.9418 94.412 49.3559C92.139 48.8623 89.9035 48.1779 87.7255 47.3086C90.7265 44.1619 94.6533 41.8963 99.0827 40.9838Z" fill="#457DB8"/>
<path d="M139.109 13H63.9348C60.6627 13 58 15.6471 58 18.9V121.167C58 126.589 62.4372 131 67.8913 131H139.109C144.563 131 149 126.589 149 121.167V32.6667V30.7V22.8333C149 17.4112 144.563 13 139.109 13ZM63.9348 16.9333H139.109C142.381 16.9333 145.043 19.5805 145.043 22.8333V22.8845C143.386 21.6356 141.344 20.8667 139.109 20.8667H63.9348C62.8428 20.8667 61.9565 19.9856 61.9565 18.9C61.9565 17.8144 62.8428 16.9333 63.9348 16.9333ZM145.043 121.167C145.043 124.42 142.381 127.067 139.109 127.067H67.8913C64.6193 127.067 61.9565 124.42 61.9565 121.167V24.4637C62.5737 24.68 63.2404 24.8 63.9348 24.8H139.109C142.381 24.8 145.043 27.4471 145.043 30.7V32.6667V121.167Z" fill="#457DB8"/>
<path d="M97.5654 28.7334H93.6089V32.6667H97.5654V28.7334Z" fill="#457DB8"/>
<path d="M105.478 28.7334H101.522V32.6667H105.478V28.7334Z" fill="#457DB8"/>
<path d="M113.391 28.7334H109.435V32.6667H113.391V28.7334Z" fill="#457DB8"/>
</g>
<defs>
<clipPath id="clip0_171_766">
<rect width="91" height="118" fill="white" transform="translate(58 13)"/>
</clipPath>
</defs>
</svg>
