<svg width="206" height="153" viewBox="0 0 206 153" fill="none" xmlns="http://www.w3.org/2000/svg">
<circle cx="129.5" cy="76.5" r="76.5" fill="white"/>
<path d="M164.338 103.413H177.384C184.78 103.413 189.198 98.2878 190.328 91.3823C190.522 90.2181 190.613 89.0082 190.613 87.764V84.1344C190.613 83.1299 190.499 82.1597 190.293 81.2238C188.969 75.3227 183.696 70.9055 177.395 70.9055L148.541 66.5339L122.962 52.7115C121.489 51.9125 120.063 51.045 118.659 50.1547C114.424 47.4496 109.482 46 104.425 46H77.8534C61.908 46 50.6765 55.8732 42.1502 70.9055H28.499C24.3671 70.9055 21 74.284 21 78.4159V87.1591C21 96.0963 28.0653 103.413 39.1484 103.413" stroke="#457DB8" stroke-width="5" stroke-miterlimit="10" stroke-linecap="round" stroke-linejoin="round"/>
<path d="M68.3228 103.413H135.163" stroke="#457DB8" stroke-width="5" stroke-miterlimit="10" stroke-linecap="round" stroke-linejoin="round"/>
<path d="M164.338 103.413C164.338 111.471 157.809 118 149.751 118C141.692 118 135.164 111.471 135.164 103.413C135.164 95.3545 141.692 88.8257 149.751 88.8257C157.809 88.8257 164.338 95.3545 164.338 103.413Z" stroke="#457DB8" stroke-width="5" stroke-miterlimit="10" stroke-linecap="round" stroke-linejoin="round"/>
<path d="M53.7351 118C61.7914 118 68.3223 111.469 68.3223 103.413C68.3223 95.3566 61.7914 88.8257 53.7351 88.8257C45.6788 88.8257 39.1479 95.3566 39.1479 103.413C39.1479 111.469 45.6788 118 53.7351 118Z" stroke="#457DB8" stroke-width="5" stroke-miterlimit="10" stroke-linecap="round" stroke-linejoin="round"/>
<path d="M92.3374 54.5034H77.4534C76.4033 54.5034 74.988 54.7774 73.39 55.2225C66.3133 57.22 60.1726 61.5459 55.9494 67.3899L53.4154 70.894C53.0388 71.4191 53.4154 72.161 54.066 72.161H129.422C132.207 72.161 133.188 68.5884 130.768 67.2529L110.086 55.8046C108.545 54.9486 106.799 54.5034 105.03 54.5034H92.3374Z" stroke="#457DB8" stroke-width="5" stroke-miterlimit="10" stroke-linecap="round" stroke-linejoin="round"/>
<path d="M92.3379 54.5034V72.1496" stroke="#457DB8" stroke-width="5" stroke-miterlimit="10" stroke-linecap="round" stroke-linejoin="round"/>
<path d="M92.3379 82.354V103.413" stroke="#457DB8" stroke-width="5" stroke-miterlimit="10" stroke-linecap="round" stroke-linejoin="round"/>
<path d="M190.339 91.3821H174.918V81.2236H190.293" stroke="#457DB8" stroke-width="5" stroke-miterlimit="10" stroke-linecap="round" stroke-linejoin="round"/>
</svg>
