<svg width="206" height="153" viewBox="0 0 206 153" fill="none" xmlns="http://www.w3.org/2000/svg">
<circle cx="129.5" cy="76.5" r="76.5" fill="white"/>
<path d="M60.1227 33C53.446 33 48 38.4413 48 45.1179V105.764C48 112.441 53.446 117.882 60.1227 117.882H147.44C154.116 117.882 159.562 112.441 159.562 105.764V45.1179C159.562 38.4413 154.116 33 147.44 33H60.1227ZM60.1227 37.8509H147.44C151.513 37.8509 154.712 41.0449 154.712 45.1179V105.764C154.712 109.837 151.513 113.031 147.44 113.031H60.1227C56.0496 113.031 52.851 109.837 52.851 105.764V45.1179C52.851 41.0449 56.0496 37.8509 60.1227 37.8509ZM67.4086 42.6829C62.0756 42.6829 57.7019 47.0566 57.7019 52.3896V79.0649C57.7019 84.3979 62.0756 88.7719 67.4086 88.7719H89.2331C94.5661 88.7719 98.9398 84.3979 98.9398 79.0649V52.3896C98.9398 47.0566 94.5661 42.6829 89.2331 42.6829H67.4086ZM106.207 42.6829C105.887 42.6821 105.571 42.7443 105.276 42.8659C104.981 42.9876 104.712 43.1663 104.486 43.3918C104.26 43.6174 104.081 43.8853 103.958 44.1803C103.836 44.4752 103.773 44.7915 103.773 45.1108C103.773 45.4302 103.836 45.7462 103.958 46.0412C104.081 46.3361 104.26 46.6041 104.486 46.8296C104.712 47.0551 104.981 47.2339 105.276 47.3555C105.571 47.4772 105.887 47.5393 106.207 47.5385H147.44C148.083 47.537 148.699 47.2807 149.153 46.8255C149.607 46.3704 149.862 45.7537 149.862 45.1108C149.862 44.468 149.607 43.8513 149.153 43.3962C148.699 42.941 148.083 42.6845 147.44 42.6829H106.207ZM67.4086 47.5385H89.2331C91.9626 47.5385 94.0841 49.6602 94.0841 52.3896V78.7381C92.4511 76.7077 90.3449 75.2463 88.4467 74.2143C87.8493 73.8898 87.2818 73.6368 86.7224 73.3854C88.2647 71.6655 89.2331 69.4226 89.2331 66.9475V62.0919C89.2331 56.7589 84.8641 52.3899 79.5312 52.3899H77.0963C71.7634 52.3899 67.4086 56.7589 67.4086 62.0919V66.9475C67.4086 69.421 68.3734 71.6611 69.9098 73.3807C69.3473 73.6329 68.7759 73.8934 68.176 74.2195C66.2795 75.2506 64.1847 76.7065 62.5576 78.7341V52.3901C62.5576 49.6607 64.6791 47.5385 67.4086 47.5385ZM106.207 52.3896C105.884 52.3822 105.562 52.4394 105.261 52.5579C104.961 52.6765 104.687 52.854 104.455 53.08C104.224 53.3059 104.04 53.5759 103.915 53.8738C103.79 54.1718 103.725 54.4918 103.725 54.8151C103.725 55.1384 103.79 55.4584 103.915 55.7563C104.04 56.0543 104.224 56.3242 104.455 56.5502C104.687 56.7762 104.961 56.9535 105.261 57.072C105.562 57.1906 105.884 57.2479 106.207 57.2405H108.623C108.946 57.2479 109.267 57.1906 109.568 57.072C109.869 56.9535 110.143 56.7762 110.374 56.5502C110.605 56.3242 110.789 56.0543 110.914 55.7563C111.04 55.4584 111.104 55.1384 111.104 54.8151C111.104 54.4918 111.04 54.1718 110.914 53.8738C110.789 53.5759 110.605 53.3059 110.374 53.08C110.143 52.854 109.869 52.6765 109.568 52.5579C109.267 52.4394 108.946 52.3822 108.623 52.3896H106.207ZM118.329 52.3896C118.006 52.3822 117.685 52.4394 117.384 52.5579C117.083 52.6765 116.809 52.854 116.578 53.08C116.347 53.3059 116.163 53.5759 116.038 53.8738C115.912 54.1718 115.848 54.4918 115.848 54.8151C115.848 55.1384 115.912 55.4584 116.038 55.7563C116.163 56.0543 116.347 56.3242 116.578 56.5502C116.809 56.7762 117.083 56.9535 117.384 57.072C117.685 57.1906 118.006 57.2479 118.329 57.2405H135.322C135.645 57.2479 135.967 57.1906 136.267 57.072C136.568 56.9535 136.842 56.7762 137.073 56.5502C137.305 56.3242 137.488 56.0543 137.614 55.7563C137.739 55.4584 137.804 55.1384 137.804 54.8151C137.804 54.4918 137.739 54.1718 137.614 53.8738C137.488 53.5759 137.305 53.3059 137.073 53.08C136.842 52.854 136.568 52.6765 136.267 52.5579C135.967 52.4394 135.645 52.3822 135.322 52.3896H118.329ZM77.0963 57.2405H79.5312C82.2606 57.2405 84.3822 59.362 84.3822 62.0914V66.947C84.3822 69.6764 82.2606 71.7981 79.5312 71.7981H77.0963C74.3669 71.7981 72.2406 69.6764 72.2406 66.947V62.0914C72.2406 59.362 74.3669 57.2405 77.0963 57.2405ZM106.207 62.0914C105.564 62.0933 104.948 62.35 104.495 62.8051C104.041 63.2602 103.786 63.8767 103.786 64.5193C103.786 65.162 104.041 65.7785 104.495 66.2336C104.948 66.6887 105.564 66.9451 106.207 66.947H108.623C108.942 66.948 109.259 66.8861 109.554 66.7645C109.849 66.6429 110.118 66.4641 110.344 66.2386C110.57 66.013 110.75 65.7452 110.872 65.4501C110.995 65.1551 111.058 64.8388 111.058 64.5193C111.058 64.1999 110.995 63.8836 110.872 63.5885C110.75 63.2935 110.57 63.0257 110.344 62.8001C110.118 62.5746 109.849 62.3958 109.554 62.2742C109.259 62.1526 108.942 62.0905 108.623 62.0914H106.207ZM118.329 62.0914C117.687 62.0933 117.071 62.35 116.617 62.8051C116.164 63.2602 115.909 63.8767 115.909 64.5193C115.909 65.162 116.164 65.7785 116.617 66.2336C117.071 66.6887 117.687 66.9451 118.329 66.947H145.005C145.324 66.948 145.641 66.8861 145.936 66.7645C146.232 66.6429 146.5 66.4641 146.726 66.2386C146.952 66.013 147.132 65.7452 147.254 65.4501C147.377 65.1551 147.44 64.8388 147.44 64.5193C147.44 64.1999 147.377 63.8836 147.254 63.5885C147.132 63.2935 146.952 63.0257 146.726 62.8001C146.5 62.5746 146.232 62.3958 145.936 62.2742C145.641 62.1526 145.324 62.0905 145.005 62.0914H118.329ZM106.207 71.7981C105.884 71.7912 105.563 71.8488 105.262 71.9675C104.962 72.0863 104.688 72.2639 104.458 72.4898C104.227 72.7157 104.043 72.9855 103.918 73.2832C103.793 73.581 103.728 73.9006 103.728 74.2236C103.728 74.5466 103.793 74.8664 103.918 75.1641C104.043 75.4619 104.227 75.7316 104.458 75.9576C104.688 76.1835 104.962 76.3611 105.262 76.4798C105.563 76.5986 105.884 76.6562 106.207 76.6492H108.623C108.946 76.6562 109.267 76.5986 109.567 76.4798C109.867 76.3611 110.141 76.1835 110.372 75.9576C110.603 75.7316 110.786 75.4619 110.911 75.1641C111.037 74.8664 111.101 74.5466 111.101 74.2236C111.101 73.9006 111.037 73.581 110.911 73.2832C110.786 72.9855 110.603 72.7157 110.372 72.4898C110.141 72.2639 109.867 72.0863 109.567 71.9675C109.267 71.8488 108.946 71.7912 108.623 71.7981H106.207ZM118.329 71.7981C118.006 71.7912 117.685 71.8488 117.385 71.9675C117.085 72.0863 116.811 72.2639 116.58 72.4898C116.349 72.7157 116.166 72.9855 116.041 73.2832C115.915 73.581 115.851 73.9006 115.851 74.2236C115.851 74.5466 115.915 74.8664 116.041 75.1641C116.166 75.4619 116.349 75.7316 116.58 75.9576C116.811 76.1835 117.085 76.3611 117.385 76.4798C117.685 76.5986 118.006 76.6562 118.329 76.6492H128.031C128.354 76.6562 128.675 76.5986 128.976 76.4798C129.276 76.3611 129.55 76.1835 129.781 75.9576C130.011 75.7316 130.195 75.4619 130.32 75.1641C130.445 74.8664 130.51 74.5466 130.51 74.2236C130.51 73.9006 130.445 73.581 130.32 73.2832C130.195 72.9855 130.011 72.7157 129.781 72.4898C129.55 72.2639 129.276 72.0863 128.976 71.9675C128.675 71.8488 128.354 71.7912 128.031 71.7981H118.329ZM75.2061 76.4549C75.8184 76.5776 76.4491 76.649 77.0963 76.649H79.5312C80.1784 76.649 80.8086 76.5747 81.4214 76.4549L81.393 76.5777C81.393 76.5777 83.6382 77.1275 86.1207 78.4772C88.251 79.6355 90.3239 81.3019 91.327 83.4466C90.6946 83.7421 89.9919 83.9208 89.2331 83.9208H67.4086C66.6437 83.9208 65.9368 83.7377 65.3005 83.4378C66.3053 81.2976 68.3796 79.6345 70.5068 78.4779C72.9893 77.1281 75.2346 76.5782 75.2346 76.5782L75.2061 76.4549ZM106.174 81.467C105.533 81.4782 104.923 81.7427 104.476 82.2025C104.03 82.6623 103.783 83.2799 103.791 83.9208V86.3558C103.761 86.6913 103.801 87.0292 103.908 87.3483C104.016 87.6675 104.189 87.9608 104.416 88.2094C104.644 88.458 104.92 88.6565 105.228 88.7923C105.537 88.9282 105.87 88.9985 106.207 88.9985C106.544 88.9985 106.877 88.9282 107.185 88.7923C107.493 88.6565 107.77 88.458 107.997 88.2094C108.224 87.9608 108.397 87.6675 108.505 87.3483C108.613 87.0292 108.653 86.6913 108.623 86.3558V83.9208C108.626 83.5979 108.566 83.2775 108.444 82.9784C108.322 82.6793 108.142 82.4076 107.914 82.1791C107.686 81.9505 107.414 81.7698 107.116 81.6475C106.817 81.5252 106.496 81.4638 106.174 81.467ZM125.582 81.467C125.263 81.4701 124.948 81.536 124.655 81.6611C124.361 81.7862 124.095 81.968 123.872 82.1959C123.649 82.4238 123.473 82.6935 123.355 82.9895C123.236 83.2855 123.177 83.6019 123.18 83.9208V86.3558C123.173 86.6788 123.231 86.9999 123.349 87.3004C123.468 87.6009 123.646 87.8749 123.871 88.1059C124.097 88.3369 124.367 88.5203 124.665 88.6456C124.963 88.7709 125.283 88.8355 125.606 88.8355C125.929 88.8355 126.249 88.7709 126.547 88.6456C126.844 88.5203 127.114 88.3369 127.34 88.1059C127.566 87.8749 127.744 87.6009 127.862 87.3004C127.981 86.9999 128.038 86.6788 128.031 86.3558V83.9208C128.035 83.5979 127.974 83.2775 127.853 82.9784C127.731 82.6793 127.551 82.4074 127.323 82.1789C127.095 81.9503 126.823 81.7698 126.524 81.6475C126.225 81.5252 125.905 81.4638 125.582 81.467ZM115.894 84.186C114.761 84.1909 113.748 85.204 113.744 86.3369C113.739 87.4748 114.756 88.4979 115.894 88.5017C117.037 88.5066 118.064 87.4798 118.059 86.3369C118.055 85.199 117.032 84.1815 115.894 84.186ZM135.322 84.186C134.184 84.1812 133.156 85.199 133.152 86.3369C133.147 87.4798 134.179 88.5063 135.322 88.5017C136.46 88.4968 137.472 87.4748 137.468 86.3369C137.463 85.204 136.455 84.19 135.322 84.186ZM145.024 84.186C143.886 84.1812 142.863 85.199 142.859 86.3369C142.854 87.4798 143.881 88.5063 145.024 88.5017C146.162 88.4968 147.179 87.4748 147.175 86.3369C147.17 85.204 146.157 84.19 145.024 84.186ZM64.9736 93.6228C60.9844 93.6228 57.7019 96.9194 57.7019 100.909C57.7019 104.898 60.9844 108.18 64.9736 108.18H142.589C146.578 108.18 149.861 104.898 149.861 100.909C149.861 96.9194 146.578 93.6228 142.589 93.6228H64.9736ZM64.9736 98.4736H142.589C143.975 98.4736 145.005 99.523 145.005 100.909C145.005 102.294 143.975 103.329 142.589 103.329H64.9736C63.5879 103.329 62.5576 102.294 62.5576 100.909C62.5576 99.523 63.5879 98.4736 64.9736 98.4736Z" fill="#457DB8"/>
</svg>
