<svg width="206" height="153" viewBox="0 0 206 153" fill="none" xmlns="http://www.w3.org/2000/svg">
<circle cx="129.5" cy="76.5" r="76.5" fill="white"/>
<path d="M117.956 43.0438V59.8698C117.959 62.4907 117.273 65.0661 115.965 67.3377C114.658 69.6093 112.777 71.4971 110.509 72.8116C108.242 74.1262 105.669 74.8212 103.048 74.827C100.427 74.8328 97.8509 74.1491 95.5778 72.8446C94.4211 72.1937 93.3582 71.3887 92.4182 70.4516C89.6165 67.6427 88.0432 63.8372 88.0435 59.8698V43.0438L93.6522 37.4351V43.0438L99.2608 37.4351V43.0438L104.87 37.4351H112.348L117.956 43.0438Z" stroke="#457DB8" stroke-width="5" stroke-linejoin="round"/>
<path d="M123.565 44.913L125.435 43.0435V37.4348C125.435 31.4847 123.071 25.7783 118.864 21.571C114.656 17.3637 108.95 15 103 15" stroke="#457DB8" stroke-width="5" stroke-linejoin="round"/>
<path d="M117.957 58C119.94 58 121.842 57.2121 123.244 55.8096C124.647 54.4072 125.435 52.5051 125.435 50.5217C125.435 48.5384 124.647 46.6362 123.244 45.2338C121.842 43.8313 119.94 43.0435 117.957 43.0435" stroke="#457DB8" stroke-width="5" stroke-linejoin="round"/>
<path d="M88.0437 43.0435C86.0603 43.0435 84.1582 43.8313 82.7558 45.2338C81.3533 46.6362 80.5654 48.5384 80.5654 50.5217C80.5654 52.5051 81.3533 54.4072 82.7558 55.8096C84.1582 57.2121 86.0603 58 88.0437 58" stroke="#457DB8" stroke-width="5" stroke-linejoin="round"/>
<path d="M95.5217 72.9565V82.3044L91.7826 83.0896L86.1739 84.2674L60 89.7826V130.913H71.2174H103H134.783H146V89.7826L119.807 84.2674L114.217 83.0896L110.478 82.3044V72.9565" stroke="#457DB8" stroke-width="5" stroke-linejoin="round"/>
<path d="M95.522 82.3042L103 89.7825L110.478 82.3042" stroke="#457DB8" stroke-width="5" stroke-linejoin="round"/>
<path d="M71.2173 130.913V106.609" stroke="#457DB8" stroke-width="5" stroke-linejoin="round"/>
<path d="M134.783 130.913V106.609" stroke="#457DB8" stroke-width="5" stroke-linejoin="round"/>
<path d="M86.1738 84.1738V84.2673C86.3047 85.819 87.9873 105.562 97.7651 110.89C99.3724 111.761 101.172 112.217 103 112.217C104.828 112.217 106.627 111.761 108.235 110.89C118.013 105.562 119.695 85.8003 119.807 84.2673C119.818 84.2372 119.824 84.2057 119.826 84.1738" stroke="#457DB8" stroke-width="5" stroke-linejoin="round"/>
<path d="M114.217 82.3042V83.0894V89.7825L108.609 95.3912L103 89.7825L97.3914 95.3912L91.7827 89.7825V83.0894V82.3042" stroke="#457DB8" stroke-width="5" stroke-linejoin="round"/>
<path d="M97.3911 95.3911L101.13 99.1302H104.869L108.609 95.3911" stroke="#457DB8" stroke-width="5" stroke-linejoin="round"/>
<path d="M101.13 99.1304L97.765 110.89L97.3911 112.217" stroke="#457DB8" stroke-width="5" stroke-linejoin="round"/>
<path d="M104.87 99.1304L108.235 110.89L108.609 112.217" stroke="#457DB8" stroke-width="5" stroke-linejoin="round"/>
<path d="M103 112.217V130.913" stroke="#457DB8" stroke-width="5" stroke-linejoin="round"/>
<path d="M103 15H82.435L88.0437 20.6087H80.5654V43.0435L82.435 44.913" stroke="#457DB8" stroke-width="5" stroke-linejoin="round"/>
</svg>
