<svg width="58" height="58" viewBox="0 0 58 58" fill="none" xmlns="http://www.w3.org/2000/svg">
<path d="M29 36.25C29 38.1728 29.7638 40.0169 31.1235 41.3765C32.4831 42.7362 34.3272 43.5 36.25 43.5C38.1728 43.5 40.0169 42.7362 41.3765 41.3765C42.7362 40.0169 43.5 38.1728 43.5 36.25C43.5 34.3272 42.7362 32.4831 41.3765 31.1235C40.0169 29.7638 38.1728 29 36.25 29C34.3272 29 32.4831 29.7638 31.1235 31.1235C29.7638 32.4831 29 34.3272 29 36.25Z" stroke="white" stroke-width="2" stroke-linecap="round" stroke-linejoin="round"/>
<path d="M31.4165 42.292V53.167L36.2498 49.542L41.0832 53.167V42.292" stroke="white" stroke-width="2" stroke-linecap="round" stroke-linejoin="round"/>
<path d="M24.1667 45.9168H12.0833C10.8015 45.9168 9.57208 45.4076 8.66565 44.5012C7.75922 43.5948 7.25 42.3654 7.25 41.0835V16.9168C7.25 14.2585 9.425 12.0835 12.0833 12.0835H45.9167C47.1985 12.0835 48.4279 12.5927 49.3343 13.4991C50.2408 14.4056 50.75 15.6349 50.75 16.9168V41.0835C50.7491 41.9311 50.5254 42.7635 50.1012 43.4973C49.677 44.2312 49.0674 44.8405 48.3333 45.2643M14.5 21.7502H43.5M14.5 29.0002H21.75M14.5 36.2502H19.3333" stroke="white" stroke-width="2" stroke-linecap="round" stroke-linejoin="round"/>
</svg>
