<svg width="58" height="58" viewBox="0 0 58 58" fill="none" xmlns="http://www.w3.org/2000/svg">
<path d="M36.25 19.3333H36.2742M26.5833 50.75H14.5C12.5772 50.75 10.7331 49.9862 9.37348 48.6265C8.01384 47.2669 7.25 45.4228 7.25 43.5V14.5C7.25 12.5772 8.01384 10.7331 9.37348 9.37348C10.7331 8.01384 12.5772 7.25 14.5 7.25H43.5C45.4228 7.25 47.2669 8.01384 48.6265 9.37348C49.9862 10.7331 50.75 12.5772 50.75 14.5V27.7917" stroke="white" stroke-width="2" stroke-linecap="round" stroke-linejoin="round"/>
<path d="M7.25 38.6667L19.3333 26.5834C21.576 24.4253 24.3407 24.4253 26.5833 26.5834L31.4167 31.4167M43.0167 50.3078L37.7677 53.058C37.6119 53.1391 37.4367 53.1752 37.2615 53.1625C37.0864 53.1497 36.9182 53.0886 36.7758 52.9858C36.6335 52.883 36.5224 52.7427 36.4552 52.5805C36.3879 52.4182 36.3671 52.2405 36.395 52.0672L37.3979 46.2406L33.1518 42.1153C33.0251 41.9928 32.9354 41.8371 32.8929 41.666C32.8504 41.495 32.8568 41.3154 32.9115 41.1478C32.9662 40.9802 33.0669 40.8314 33.2021 40.7183C33.3374 40.6052 33.5016 40.5324 33.6763 40.5082L39.5439 39.6576L42.1684 34.3578C42.2469 34.2 42.3679 34.0672 42.5177 33.9743C42.6676 33.8815 42.8404 33.8323 43.0167 33.8323C43.193 33.8323 43.3657 33.8815 43.5156 33.9743C43.6654 34.0672 43.7864 34.2 43.8649 34.3578L46.4894 39.6576L52.3571 40.5082C52.5312 40.5333 52.6948 40.6065 52.8294 40.7197C52.9641 40.8329 53.0643 40.9815 53.1189 41.1488C53.1735 41.316 53.1801 41.4951 53.1382 41.6659C53.0962 41.8367 53.0073 41.9924 52.8815 42.1153L48.6354 46.2406L49.6359 52.0647C49.6659 52.2384 49.6467 52.417 49.5803 52.5803C49.5139 52.7436 49.4031 52.885 49.2603 52.9884C49.1176 53.0919 48.9488 53.1532 48.773 53.1655C48.5971 53.1778 48.4214 53.1406 48.2657 53.058L43.0167 50.3078Z" stroke="white" stroke-width="2" stroke-linecap="round" stroke-linejoin="round"/>
</svg>
