<svg width="58" height="58" viewBox="0 0 58 58" fill="none" xmlns="http://www.w3.org/2000/svg">
<path d="M19.3333 16.9167V12.0833C19.3333 10.8015 19.8426 9.57208 20.749 8.66565C21.6554 7.75922 22.8848 7.25 24.1667 7.25H33.8333C35.1152 7.25 36.3446 7.75922 37.251 8.66565C38.1574 9.57208 38.6667 10.8015 38.6667 12.0833V16.9167M29 29V29.0242M7.25 21.75C7.25 20.4681 7.75922 19.2387 8.66565 18.3323C9.57208 17.4259 10.8015 16.9167 12.0833 16.9167H45.9167C47.1985 16.9167 48.4279 17.4259 49.3343 18.3323C50.2408 19.2387 50.75 20.4681 50.75 21.75V43.5C50.75 44.7819 50.2408 46.0113 49.3343 46.9177C48.4279 47.8241 47.1985 48.3333 45.9167 48.3333H12.0833C10.8015 48.3333 9.57208 47.8241 8.66565 46.9177C7.75922 46.0113 7.25 44.7819 7.25 43.5V21.75Z" stroke="white" stroke-width="2" stroke-linecap="round" stroke-linejoin="round"/>
<path d="M7.25 31.4165C13.9963 34.816 21.4456 36.5868 29 36.5868C36.5544 36.5868 44.0037 34.816 50.75 31.4165" stroke="white" stroke-width="2" stroke-linecap="round" stroke-linejoin="round"/>
</svg>
