<?xml version="1.0" standalone="no"?>
<!DOCTYPE svg PUBLIC "-//W3C//DTD SVG 20010904//EN"
 "http://www.w3.org/TR/2001/REC-SVG-20010904/DTD/svg10.dtd">
<svg version="1.0" xmlns="http://www.w3.org/2000/svg"
 width="76.000000pt" height="76.000000pt" viewBox="0 0 76.000000 76.000000"
 preserveAspectRatio="xMidYMid meet">
<metadata>
Created by potrace 1.14, written by Peter Selinger 2001-2017
</metadata>
<g transform="translate(0.000000,76.000000) scale(0.100000,-0.100000)"
fill="#000000" stroke="none">
<path d="M242 510 c-52 -66 -68 -80 -91 -80 -16 0 -37 -10 -51 -25 -20 -22
-24 -36 -25 -103 -2 -94 1 -102 32 -102 15 0 36 -12 53 -30 39 -42 88 -42 123
0 24 28 30 30 96 30 64 0 72 -2 99 -30 21 -21 40 -30 62 -30 23 0 40 9 60 30
17 18 38 30 54 30 14 0 27 6 27 13 1 6 2 53 4 102 2 81 -2 99 -33 183 l-35 92
-156 0 -156 0 -63 -80z m118 -20 l0 -60 -60 0 c-33 0 -60 2 -60 5 0 16 88 115
103 115 14 0 17 -10 17 -60z m249 9 c11 -29 21 -56 21 -60 0 -5 -52 -9 -115
-9 l-115 0 0 60 0 60 94 0 93 0 22 -51z m36 -182 c1 -38 -2 -70 -6 -73 -4 -2
-23 12 -42 31 -27 27 -40 33 -62 29 -41 -7 -63 -21 -70 -44 -6 -18 -15 -20
-85 -20 -71 0 -79 2 -85 21 -4 11 -22 27 -40 35 -41 17 -73 7 -103 -31 -12
-15 -25 -24 -30 -22 -10 7 -8 105 3 130 7 16 27 17 263 15 l257 -3 0 -68z
m-382 -79 c8 -23 -15 -58 -38 -58 -30 0 -49 24 -41 54 9 37 66 40 79 4z m317
-14 c0 -29 -25 -48 -54 -40 -41 10 -39 65 4 78 23 7 50 -14 50 -38z"/>
</g>
</svg>
