<svg width="284" height="69" viewBox="0 0 284 69" fill="none" xmlns="http://www.w3.org/2000/svg">
<path d="M54.625 48.875C54.625 50.4 54.0192 51.8625 52.9409 52.9409C51.8625 54.0192 50.4 54.625 48.875 54.625C47.35 54.625 45.8875 54.0192 44.8091 52.9409C43.7308 51.8625 43.125 50.4 43.125 48.875C43.125 47.35 43.7308 45.8875 44.8091 44.8091C45.8875 43.7308 47.35 43.125 48.875 43.125C50.4 43.125 51.8625 43.7308 52.9409 44.8091C54.0192 45.8875 54.625 47.35 54.625 48.875ZM25.875 48.875C25.875 50.4 25.2692 51.8625 24.1909 52.9409C23.1125 54.0192 21.65 54.625 20.125 54.625C18.6 54.625 17.1375 54.0192 16.0591 52.9409C14.9808 51.8625 14.375 50.4 14.375 48.875C14.375 47.35 14.9808 45.8875 16.0591 44.8091C17.1375 43.7308 18.6 43.125 20.125 43.125C21.65 43.125 23.1125 43.7308 24.1909 44.8091C25.2692 45.8875 25.875 47.35 25.875 48.875Z" stroke="white" stroke-width="4" stroke-linecap="round" stroke-linejoin="round"/>
<path d="M54.625 48.875H60.375V31.625M60.375 31.625L54.625 17.25H28.75L17.25 31.625M60.375 31.625H17.25M17.25 31.625H14.375C12.85 31.625 11.3875 32.2308 10.3091 33.3091C9.2308 34.3875 8.625 35.85 8.625 37.375V48.875H14.375M25.875 48.875H43.125M34.5 31.625V17.25" stroke="white" stroke-width="4" stroke-linecap="round" stroke-linejoin="round"/>
<path d="M110.291 52C109.843 50.688 109.379 49.392 108.899 48.112C108.419 46.832 107.955 45.52 107.507 44.176H93.4906C93.0426 45.52 92.5786 46.848 92.0986 48.16C91.6506 49.44 91.2026 50.72 90.7546 52H84.4666C85.7146 48.448 86.8986 45.168 88.0186 42.16C89.1386 39.152 90.2266 36.304 91.2826 33.616C92.3706 30.928 93.4426 28.368 94.4986 25.936C95.5546 23.504 96.6426 21.104 97.7626 18.736H103.475C104.595 21.104 105.683 23.504 106.739 25.936C107.795 28.368 108.851 30.928 109.907 33.616C110.995 36.304 112.099 39.152 113.219 42.16C114.371 45.168 115.571 48.448 116.819 52H110.291ZM100.499 25.168C99.7626 26.864 98.9146 28.928 97.9546 31.36C97.0266 33.792 96.0506 36.432 95.0266 39.28H105.971C104.947 36.432 103.955 33.776 102.995 31.312C102.035 28.848 101.203 26.8 100.499 25.168ZM130.719 52.48C129.791 52.48 128.847 52.448 127.887 52.384C126.927 52.32 125.999 52.24 125.103 52.144C124.239 52.048 123.423 51.952 122.655 51.856C121.887 51.728 121.247 51.6 120.735 51.472V27.232C121.247 27.104 121.887 26.992 122.655 26.896C123.423 26.768 124.239 26.672 125.103 26.608C125.999 26.512 126.927 26.448 127.887 26.416C128.847 26.352 129.791 26.32 130.719 26.32C134.111 26.32 136.751 26.944 138.639 28.192C140.527 29.408 141.471 31.12 141.471 33.328C141.471 34.48 141.183 35.504 140.607 36.4C140.031 37.296 139.279 37.968 138.351 38.416C139.503 38.864 140.495 39.568 141.327 40.528C142.159 41.488 142.575 42.848 142.575 44.608C142.575 47.136 141.583 49.088 139.599 50.464C137.615 51.808 134.655 52.48 130.719 52.48ZM130.863 36.976C132.303 36.976 133.487 36.768 134.415 36.352C135.375 35.936 135.855 35.104 135.855 33.856C135.855 33.248 135.695 32.752 135.375 32.368C135.087 31.984 134.687 31.68 134.175 31.456C133.663 31.232 133.071 31.088 132.399 31.024C131.727 30.928 131.023 30.88 130.287 30.88C129.711 30.88 129.039 30.896 128.271 30.928C127.535 30.96 126.943 31.008 126.495 31.072V36.976H130.863ZM126.495 47.68C126.879 47.744 127.503 47.808 128.367 47.872C129.263 47.904 130.095 47.92 130.863 47.92C132.591 47.92 134.015 47.68 135.135 47.2C136.287 46.72 136.863 45.808 136.863 44.464C136.863 43.152 136.335 42.256 135.279 41.776C134.255 41.264 132.911 41.008 131.247 41.008H126.495V47.68ZM166.975 31.744H158.863V52H153.055V31.744H144.991V26.896H166.975V31.744ZM194.017 39.424C194.017 41.408 193.729 43.216 193.153 44.848C192.577 46.48 191.761 47.872 190.705 49.024C189.649 50.176 188.369 51.072 186.865 51.712C185.393 52.352 183.761 52.672 181.969 52.672C180.177 52.672 178.545 52.352 177.073 51.712C175.601 51.072 174.337 50.176 173.281 49.024C172.225 47.872 171.393 46.48 170.785 44.848C170.209 43.216 169.921 41.408 169.921 39.424C169.921 37.44 170.209 35.648 170.785 34.048C171.393 32.416 172.225 31.024 173.281 29.872C174.369 28.72 175.649 27.84 177.121 27.232C178.593 26.592 180.209 26.272 181.969 26.272C183.729 26.272 185.345 26.592 186.817 27.232C188.321 27.84 189.601 28.72 190.657 29.872C191.713 31.024 192.529 32.416 193.105 34.048C193.713 35.648 194.017 37.44 194.017 39.424ZM188.065 39.424C188.065 36.928 187.521 34.96 186.433 33.52C185.377 32.048 183.889 31.312 181.969 31.312C180.049 31.312 178.545 32.048 177.457 33.52C176.401 34.96 175.873 36.928 175.873 39.424C175.873 41.952 176.401 43.952 177.457 45.424C178.545 46.896 180.049 47.632 181.969 47.632C183.889 47.632 185.377 46.896 186.433 45.424C187.521 43.952 188.065 41.952 188.065 39.424ZM206.193 23.872V30.88H209.457C211.857 30.88 214.001 31.072 215.889 31.456C217.777 31.84 219.377 32.464 220.689 33.328C222.001 34.16 222.993 35.264 223.665 36.64C224.369 37.984 224.721 39.632 224.721 41.584C224.721 45.2 223.409 47.904 220.785 49.696C218.193 51.456 214.481 52.336 209.649 52.336C208.305 52.336 206.785 52.256 205.089 52.096C203.393 51.968 201.793 51.728 200.289 51.376V18.736H221.601V23.872H206.193ZM208.305 47.104C208.657 47.104 209.057 47.104 209.505 47.104C209.953 47.104 210.449 47.088 210.993 47.056C211.985 47.024 212.929 46.912 213.825 46.72C214.753 46.528 215.553 46.224 216.225 45.808C216.929 45.392 217.473 44.848 217.857 44.176C218.273 43.504 218.481 42.656 218.481 41.632C218.481 40.48 218.273 39.536 217.857 38.8C217.441 38.064 216.833 37.488 216.033 37.072C215.233 36.624 214.257 36.32 213.105 36.16C211.985 35.968 210.705 35.872 209.265 35.872H206.193V47.008C206.481 47.04 206.785 47.072 207.105 47.104C207.457 47.104 207.857 47.104 208.305 47.104ZM246.844 39.568C246.844 36.976 246.252 34.96 245.068 33.52C243.916 32.08 242.044 31.36 239.452 31.36C238.908 31.36 238.332 31.392 237.724 31.456C237.148 31.488 236.572 31.584 235.996 31.744V46.096C236.508 46.448 237.18 46.784 238.012 47.104C238.876 47.392 239.788 47.536 240.748 47.536C242.86 47.536 244.396 46.816 245.356 45.376C246.348 43.936 246.844 42 246.844 39.568ZM252.796 39.472C252.796 41.392 252.54 43.152 252.028 44.752C251.548 46.352 250.844 47.728 249.916 48.88C248.988 50.032 247.82 50.928 246.412 51.568C245.036 52.208 243.468 52.528 241.708 52.528C240.524 52.528 239.436 52.384 238.444 52.096C237.452 51.808 236.636 51.488 235.996 51.136V60.88H230.188V27.712C231.372 27.392 232.828 27.088 234.556 26.8C236.284 26.512 238.108 26.368 240.028 26.368C242.012 26.368 243.788 26.672 245.356 27.28C246.924 27.888 248.252 28.768 249.34 29.92C250.46 31.04 251.308 32.416 251.884 34.048C252.492 35.648 252.796 37.456 252.796 39.472ZM281.486 39.424C281.486 41.408 281.198 43.216 280.622 44.848C280.046 46.48 279.23 47.872 278.174 49.024C277.118 50.176 275.838 51.072 274.334 51.712C272.862 52.352 271.23 52.672 269.438 52.672C267.646 52.672 266.014 52.352 264.542 51.712C263.07 51.072 261.806 50.176 260.75 49.024C259.694 47.872 258.862 46.48 258.254 44.848C257.678 43.216 257.39 41.408 257.39 39.424C257.39 37.44 257.678 35.648 258.254 34.048C258.862 32.416 259.694 31.024 260.75 29.872C261.838 28.72 263.118 27.84 264.59 27.232C266.062 26.592 267.678 26.272 269.438 26.272C271.198 26.272 272.814 26.592 274.286 27.232C275.79 27.84 277.07 28.72 278.126 29.872C279.182 31.024 279.998 32.416 280.574 34.048C281.182 35.648 281.486 37.44 281.486 39.424ZM275.534 39.424C275.534 36.928 274.99 34.96 273.902 33.52C272.846 32.048 271.358 31.312 269.438 31.312C267.518 31.312 266.014 32.048 264.926 33.52C263.87 34.96 263.342 36.928 263.342 39.424C263.342 41.952 263.87 43.952 264.926 45.424C266.014 46.896 267.518 47.632 269.438 47.632C271.358 47.632 272.846 46.896 273.902 45.424C274.99 43.952 275.534 41.952 275.534 39.424Z" fill="white"/>
</svg>
