<svg width="318" height="69" viewBox="0 0 318 69" fill="none" xmlns="http://www.w3.org/2000/svg">
<path d="M54.625 48.875C54.625 50.4 54.0192 51.8625 52.9409 52.9409C51.8625 54.0192 50.4 54.625 48.875 54.625C47.35 54.625 45.8875 54.0192 44.8091 52.9409C43.7308 51.8625 43.125 50.4 43.125 48.875C43.125 47.35 43.7308 45.8875 44.8091 44.8091C45.8875 43.7308 47.35 43.125 48.875 43.125C50.4 43.125 51.8625 43.7308 52.9409 44.8091C54.0192 45.8875 54.625 47.35 54.625 48.875ZM25.875 48.875C25.875 50.4 25.2692 51.8625 24.1909 52.9409C23.1125 54.0192 21.65 54.625 20.125 54.625C18.6 54.625 17.1375 54.0192 16.0591 52.9409C14.9808 51.8625 14.375 50.4 14.375 48.875C14.375 47.35 14.9808 45.8875 16.0591 44.8091C17.1375 43.7308 18.6 43.125 20.125 43.125C21.65 43.125 23.1125 43.7308 24.1909 44.8091C25.2692 45.8875 25.875 47.35 25.875 48.875Z" stroke="#457DB8" stroke-width="4" stroke-linecap="round" stroke-linejoin="round"/>
<path d="M54.625 48.875H60.375V31.625M60.375 31.625L54.625 17.25H28.75L17.25 31.625M60.375 31.625H17.25M17.25 31.625H14.375C12.85 31.625 11.3875 32.2308 10.3091 33.3091C9.2308 34.3875 8.625 35.85 8.625 37.375V48.875H14.375M25.875 48.875H43.125M34.5 31.625V17.25" stroke="#457DB8" stroke-width="4" stroke-linecap="round" stroke-linejoin="round"/>
<path d="M116.205 52C115.757 50.688 115.293 49.392 114.813 48.112C114.333 46.832 113.869 45.52 113.421 44.176H99.4046C98.9566 45.52 98.4926 46.848 98.0126 48.16C97.5646 49.44 97.1166 50.72 96.6686 52H90.3806C91.6286 48.448 92.8126 45.168 93.9326 42.16C95.0526 39.152 96.1406 36.304 97.1966 33.616C98.2846 30.928 99.3566 28.368 100.413 25.936C101.469 23.504 102.557 21.104 103.677 18.736H109.389C110.509 21.104 111.597 23.504 112.653 25.936C113.709 28.368 114.765 30.928 115.821 33.616C116.909 36.304 118.013 39.152 119.133 42.16C120.285 45.168 121.485 48.448 122.733 52H116.205ZM106.413 25.168C105.677 26.864 104.829 28.928 103.869 31.36C102.941 33.792 101.965 36.432 100.941 39.28H111.885C110.861 36.432 109.869 33.776 108.909 31.312C107.949 28.848 107.117 26.8 106.413 25.168ZM133.816 52C131.416 46.816 129.096 41.392 126.856 35.728C124.648 30.064 122.584 24.4 120.664 18.736H127.336C128.104 20.976 128.888 23.264 129.688 25.6C130.488 27.936 131.288 30.24 132.088 32.512C132.888 34.752 133.688 36.928 134.488 39.04C135.288 41.152 136.072 43.088 136.84 44.848C137.576 43.088 138.344 41.168 139.144 39.088C139.944 36.976 140.744 34.784 141.544 32.512C142.376 30.24 143.192 27.936 143.992 25.6C144.792 23.264 145.56 20.976 146.296 18.736H152.776C150.824 24.4 148.744 30.064 146.536 35.728C144.328 41.392 142.024 46.816 139.624 52H133.816ZM181.481 18.736V23.968H171.257V52H165.161V23.968H154.937V18.736H181.481ZM189.866 35.344C189.866 37.168 190.09 38.832 190.538 40.336C190.986 41.808 191.626 43.072 192.458 44.128C193.322 45.152 194.362 45.952 195.578 46.528C196.794 47.104 198.17 47.392 199.706 47.392C201.21 47.392 202.57 47.104 203.786 46.528C205.002 45.952 206.026 45.152 206.858 44.128C207.722 43.072 208.378 41.808 208.826 40.336C209.274 38.832 209.498 37.168 209.498 35.344C209.498 33.52 209.274 31.872 208.826 30.4C208.378 28.896 207.722 27.632 206.858 26.608C206.026 25.552 205.002 24.736 203.786 24.16C202.57 23.584 201.21 23.296 199.706 23.296C198.17 23.296 196.794 23.584 195.578 24.16C194.362 24.736 193.322 25.552 192.458 26.608C191.626 27.664 190.986 28.928 190.538 30.4C190.09 31.872 189.866 33.52 189.866 35.344ZM215.834 35.344C215.834 38.192 215.402 40.704 214.538 42.88C213.706 45.056 212.554 46.88 211.082 48.352C209.642 49.792 207.946 50.88 205.994 51.616C204.042 52.352 201.962 52.72 199.754 52.72C197.546 52.72 195.45 52.352 193.466 51.616C191.514 50.88 189.802 49.792 188.33 48.352C186.89 46.88 185.738 45.056 184.874 42.88C184.01 40.704 183.578 38.192 183.578 35.344C183.578 32.496 184.01 30 184.874 27.856C185.738 25.68 186.906 23.856 188.378 22.384C189.882 20.912 191.61 19.808 193.562 19.072C195.514 18.336 197.578 17.968 199.754 17.968C201.93 17.968 203.994 18.336 205.946 19.072C207.898 19.808 209.594 20.912 211.034 22.384C212.506 23.856 213.674 25.68 214.538 27.856C215.402 30 215.834 32.496 215.834 35.344ZM232.5 52.384C230.74 52.384 228.964 52.32 227.172 52.192C225.38 52.096 223.812 51.872 222.468 51.52V19.216C223.172 19.088 223.924 18.976 224.724 18.88C225.524 18.752 226.34 18.656 227.172 18.592C228.004 18.528 228.82 18.48 229.62 18.448C230.452 18.416 231.236 18.4 231.972 18.4C233.988 18.4 235.86 18.56 237.588 18.88C239.316 19.168 240.804 19.664 242.052 20.368C243.332 21.072 244.324 22 245.028 23.152C245.732 24.304 246.084 25.728 246.084 27.424C246.084 28.992 245.7 30.336 244.932 31.456C244.196 32.576 243.156 33.472 241.812 34.144C243.828 34.816 245.316 35.808 246.276 37.12C247.236 38.432 247.716 40.096 247.716 42.112C247.716 45.536 246.468 48.112 243.972 49.84C241.476 51.536 237.652 52.384 232.5 52.384ZM228.42 37.024V47.152C229.092 47.216 229.812 47.264 230.58 47.296C231.348 47.328 232.052 47.344 232.692 47.344C233.94 47.344 235.092 47.264 236.148 47.104C237.236 46.944 238.164 46.672 238.932 46.288C239.732 45.872 240.356 45.328 240.804 44.656C241.284 43.984 241.524 43.12 241.524 42.064C241.524 40.176 240.836 38.864 239.46 38.128C238.084 37.392 236.18 37.024 233.748 37.024H228.42ZM228.42 32.272H232.692C234.996 32.272 236.804 31.952 238.116 31.312C239.428 30.64 240.084 29.456 240.084 27.76C240.084 26.16 239.396 25.024 238.02 24.352C236.676 23.68 234.916 23.344 232.74 23.344C231.812 23.344 230.98 23.36 230.244 23.392C229.54 23.424 228.932 23.472 228.42 23.536V32.272ZM263.183 18.4C267.983 18.4 271.647 19.28 274.175 21.04C276.735 22.8 278.015 25.488 278.015 29.104C278.015 33.616 275.791 36.672 271.343 38.272C271.951 39.008 272.639 39.904 273.407 40.96C274.175 42.016 274.959 43.168 275.759 44.416C276.559 45.632 277.327 46.896 278.063 48.208C278.799 49.488 279.455 50.752 280.031 52H273.263C272.655 50.848 271.999 49.696 271.295 48.544C270.591 47.36 269.871 46.224 269.135 45.136C268.431 44.016 267.727 42.976 267.023 42.016C266.319 41.024 265.663 40.144 265.055 39.376C264.607 39.408 264.223 39.424 263.903 39.424C263.583 39.424 263.279 39.424 262.991 39.424H260.063V52H254.015V19.216C255.487 18.896 257.055 18.688 258.719 18.592C260.383 18.464 261.871 18.4 263.183 18.4ZM263.615 23.632C262.335 23.632 261.151 23.68 260.063 23.776V34.528H262.703C264.175 34.528 265.471 34.448 266.591 34.288C267.711 34.128 268.639 33.84 269.375 33.424C270.143 33.008 270.719 32.448 271.103 31.744C271.487 31.04 271.679 30.144 271.679 29.056C271.679 28.032 271.487 27.168 271.103 26.464C270.719 25.76 270.159 25.2 269.423 24.784C268.719 24.368 267.871 24.08 266.879 23.92C265.887 23.728 264.799 23.632 263.615 23.632ZM289.241 35.344C289.241 37.168 289.465 38.832 289.913 40.336C290.361 41.808 291.001 43.072 291.833 44.128C292.697 45.152 293.737 45.952 294.953 46.528C296.169 47.104 297.545 47.392 299.081 47.392C300.585 47.392 301.945 47.104 303.161 46.528C304.377 45.952 305.401 45.152 306.233 44.128C307.097 43.072 307.753 41.808 308.201 40.336C308.649 38.832 308.873 37.168 308.873 35.344C308.873 33.52 308.649 31.872 308.201 30.4C307.753 28.896 307.097 27.632 306.233 26.608C305.401 25.552 304.377 24.736 303.161 24.16C301.945 23.584 300.585 23.296 299.081 23.296C297.545 23.296 296.169 23.584 294.953 24.16C293.737 24.736 292.697 25.552 291.833 26.608C291.001 27.664 290.361 28.928 289.913 30.4C289.465 31.872 289.241 33.52 289.241 35.344ZM315.209 35.344C315.209 38.192 314.777 40.704 313.913 42.88C313.081 45.056 311.929 46.88 310.457 48.352C309.017 49.792 307.321 50.88 305.369 51.616C303.417 52.352 301.337 52.72 299.129 52.72C296.921 52.72 294.825 52.352 292.841 51.616C290.889 50.88 289.177 49.792 287.705 48.352C286.265 46.88 285.113 45.056 284.249 42.88C283.385 40.704 282.953 38.192 282.953 35.344C282.953 32.496 283.385 30 284.249 27.856C285.113 25.68 286.281 23.856 287.753 22.384C289.257 20.912 290.985 19.808 292.937 19.072C294.889 18.336 296.953 17.968 299.129 17.968C301.305 17.968 303.369 18.336 305.321 19.072C307.273 19.808 308.969 20.912 310.409 22.384C311.881 23.856 313.049 25.68 313.913 27.856C314.777 30 315.209 32.496 315.209 35.344Z" fill="#457DB8"/>
</svg>
