<svg width="40" height="40" viewBox="0 0 40 40" fill="none" xmlns="http://www.w3.org/2000/svg">
<path d="M9.99984 20C9.11578 20 8.26794 19.6488 7.64281 19.0237C7.01769 18.3986 6.6665 17.5507 6.6665 16.6667C6.6665 15.7826 7.01769 14.9348 7.64281 14.3096C8.26794 13.6845 9.11578 13.3333 9.99984 13.3333M9.99984 20C10.8839 20 11.7317 19.6488 12.3569 19.0237C12.982 18.3986 13.3332 17.5507 13.3332 16.6667C13.3332 15.7826 12.982 14.9348 12.3569 14.3096C11.7317 13.6845 10.8839 13.3333 9.99984 13.3333M9.99984 20V33.3333M9.99984 13.3333V6.66666M23.0382 25.2933C22.8155 24.8017 22.4768 24.3715 22.0512 24.0397C21.6256 23.7078 21.1258 23.4843 20.5947 23.3883C20.0636 23.2923 19.5172 23.3267 19.0023 23.4885C18.4875 23.6503 18.0196 23.9347 17.6389 24.3173C17.2582 24.6998 16.9761 25.1691 16.8169 25.6847C16.6576 26.2004 16.6259 26.747 16.7245 27.2776C16.8231 27.8082 17.0491 28.3069 17.383 28.7309C17.7169 29.1549 18.1488 29.4914 18.6415 29.7117M19.9998 6.66666V23.3333M29.9998 15C29.1158 15 28.2679 14.6488 27.6428 14.0237C27.0177 13.3986 26.6665 12.5507 26.6665 11.6667C26.6665 10.7826 27.0177 9.93476 27.6428 9.30963C28.2679 8.68451 29.1158 8.33332 29.9998 8.33332M29.9998 15C30.8839 15 31.7317 14.6488 32.3569 14.0237C32.982 13.3986 33.3332 12.5507 33.3332 11.6667C33.3332 10.7826 32.982 9.93476 32.3569 9.30963C31.7317 8.68451 30.8839 8.33332 29.9998 8.33332M29.9998 15V23.3333M29.9998 8.33332V6.66666M24.9998 31.6667L28.3332 35L34.9998 28.3333" stroke="#457DB8" stroke-width="2" stroke-linecap="round" stroke-linejoin="round"/>
</svg>
